<?xml version="1.0" standalone="no"?>
 <!DOCTYPE svg PUBLIC "-//W3C//DTD SVG 1.1//EN" 
 "http://www.w3.org/Graphics/SVG/1.1/DTD/svg11.dtd"> 
<svg xmlns="http://www.w3.org/2000/svg" version="1.1" 
    width="29.7002cm" height="21.0007cm" viewBox="0 0 116930 82680 ">
<title>SVG Picture created as githubHW-B.SilkS.svg date 2018/01/12 10:06:20 </title>
  <desc>Picture generated by PCBNEW </desc>
<g style="fill:#000000; fill-opacity:1;stroke:#000000; stroke-opacity:1;
stroke-linecap:round; stroke-linejoin:round; "
 transform="translate(0 0) scale(1 1)">
</g>
<g style="fill:#000000; fill-opacity:0.0; 
stroke:#000000; stroke-width:-0.000393701; stroke-opacity:1; 
stroke-linecap:round; stroke-linejoin:round;">
</g>
<g style="fill:#000000; fill-opacity:0.0; 
stroke:#000000; stroke-width:39.3701; stroke-opacity:1; 
stroke-linecap:round; stroke-linejoin:round;">
<path d="M55508 67458
L55508 65170
" />
<path d="M55508 65170
L55003 65160
" />
<path d="M55003 65160
L55005 61683
" />
<path d="M55005 61683
L55479 61684
" />
<path d="M55479 61684
L55468 58109
" />
<path d="M55468 58109
L43197 58114
" />
<path d="M43197 58114
L42959 58206
" />
<path d="M42959 58206
L42745 58318
" />
<path d="M42745 58318
L42553 58449
" />
<path d="M42553 58449
L42385 58601
" />
<path d="M42385 58601
L42240 58774
" />
<path d="M42240 58774
L42119 58967
" />
<path d="M42119 58967
L42022 59182
" />
<path d="M42022 59182
L41949 59417
" />
<path d="M41949 59417
L41937 66912
" />
<path d="M41937 66912
L42030 67156
" />
<path d="M42030 67156
L42142 67388
" />
<path d="M42142 67388
L42279 67602
" />
<path d="M42279 67602
L42448 67793
" />
<path d="M42448 67793
L42654 67955
" />
<path d="M42654 67955
L42903 68084
" />
<path d="M42903 68084
L43200 68174
" />
<path d="M43200 68174
L43552 68220
" />
<path d="M43552 68220
L52432 68229
" />
<path d="M52432 68229
L52810 67464
" />
<path d="M52810 67464
L55490 67453
" />
<path d="M53057 61948
L53057 64759
" />
<path d="M53057 64759
L55346 64759
" />
<path d="M55346 64759
L55346 61948
" />
<path d="M55346 61948
L53057 61948
" />
<path d="M52801 67429
L52801 66818
" />
<path d="M52801 66818
L53010 66610
" />
<path d="M53010 66610
L53010 66117
" />
<path d="M53010 66117
L55003 66117
" />
<path d="M55003 66117
L55003 66624
" />
<path d="M55003 66624
L55197 66832
" />
<path d="M55197 66832
L55197 67450
" />
<path d="M55197 67450
L52801 67429
" />
<path d="M53621 67443
L53621 67700
" />
<path d="M53621 67700
L54405 67700
" />
<path d="M54405 67700
L54405 67457
" />
</g>
<g style="fill:#000000; fill-opacity:0.0; 
stroke:#000000; stroke-width:47.2441; stroke-opacity:1; 
stroke-linecap:round; stroke-linejoin:round;">
<path d="M52476.4 51693.7 A393.701 393.701 0.0 0 0 52476.4 50906.3 " />
<path d="M52476 50906
L52476 50256
" />
<path d="M52476 50256
L66523 50256
" />
<path d="M66523 50256
L66523 52343
" />
<path d="M66523 52343
L52476 52343
" />
<path d="M52476 52343
L52476 51693
" />
</g>
<g style="fill:#000000; fill-opacity:0.0; 
stroke:#000000; stroke-width:59.0551; stroke-opacity:1; 
stroke-linecap:round; stroke-linejoin:round;">
<path d="M56289 63400
L56608 63400
L56646 63418
L56664 63437
L56683 63475
L56683 63550
L56664 63587
L56646 63606
L56608 63625
L56289 63625
" />
<path d="M56683 64018
L56683 63793
" />
<path d="M56683 63906
L56289 63906
L56346 63868
L56383 63831
L56402 63793
" />
<path d="M42453 60500
L43634 60781
L42790 61006
L43634 61231
L42453 61512
" />
<path d="M43578 62412
L43634 62300
L43634 62075
L43578 61962
L43465 61906
L43015 61906
L42903 61962
L42846 62075
L42846 62300
L42903 62412
L43015 62468
L43128 62468
L43240 61906
" />
<path d="M43634 62975
L42453 62975
L43296 63368
L42453 63762
L43634 63762
" />
<path d="M43634 64493
L43578 64381
L43521 64324
L43409 64268
L43071 64268
L42959 64324
L42903 64381
L42846 64493
L42846 64662
L42903 64774
L42959 64831
L43071 64887
L43409 64887
L43521 64831
L43578 64774
L43634 64662
L43634 64493
" />
<path d="M43578 65337
L43634 65449
L43634 65674
L43578 65787
L43465 65843
L43409 65843
L43296 65787
L43240 65674
L43240 65505
L43184 65393
L43071 65337
L43015 65337
L42903 65393
L42846 65505
L42846 65674
L42903 65787
" />
<path d="M51867 51000
L52185 51000
L52223 51018
L52242 51037
L52260 51075
L52260 51150
L52242 51187
L52223 51206
L52185 51225
L51867 51225
" />
<path d="M51867 51374
L51867 51618
L52017 51487
L52017 51543
L52035 51581
L52054 51599
L52092 51618
L52185 51618
L52223 51599
L52242 51581
L52260 51543
L52260 51431
L52242 51393
L52223 51374
" />
</g> 
</svg>
