G04 #@! TF.FileFunction,Copper,L2,Bot,Signal*
%FSLAX46Y46*%
G04 Gerber Fmt 4.6, Leading zero omitted, Abs format (unit mm)*
G04 Created by KiCad (PCBNEW 4.0.7) date 01/18/18 14:45:31*
%MOMM*%
%LPD*%
G01*
G04 APERTURE LIST*
%ADD10C,0.100000*%
%ADD11R,1.800000X1.800000*%
%ADD12C,1.800000*%
%ADD13R,1.600000X1.600000*%
%ADD14O,1.600000X1.600000*%
%ADD15R,1.350000X1.350000*%
%ADD16O,1.350000X1.350000*%
%ADD17C,2.000000*%
%ADD18C,1.400000*%
%ADD19O,1.400000X1.400000*%
%ADD20C,2.500000*%
%ADD21C,5.500000*%
%ADD22C,0.600000*%
%ADD23C,0.500000*%
%ADD24C,1.000000*%
G04 APERTURE END LIST*
D10*
D11*
X99060000Y-77470000D03*
D12*
X101600000Y-77470000D03*
D13*
X183007000Y-150241000D03*
D14*
X175387000Y-127381000D03*
X183007000Y-147701000D03*
X175387000Y-129921000D03*
X183007000Y-145161000D03*
X175387000Y-132461000D03*
X183007000Y-142621000D03*
X175387000Y-135001000D03*
X183007000Y-140081000D03*
X175387000Y-137541000D03*
X183007000Y-137541000D03*
X175387000Y-140081000D03*
X183007000Y-135001000D03*
X175387000Y-142621000D03*
X183007000Y-132461000D03*
X175387000Y-145161000D03*
X183007000Y-129921000D03*
X175387000Y-147701000D03*
X183007000Y-127381000D03*
X175387000Y-150241000D03*
D15*
X196088000Y-141224000D03*
D16*
X196088000Y-139224000D03*
X196088000Y-137224000D03*
X196088000Y-135224000D03*
X196088000Y-133224000D03*
X196088000Y-131224000D03*
X196088000Y-129224000D03*
D17*
X166696000Y-159258000D03*
X171196000Y-159258000D03*
X166696000Y-165758000D03*
X171196000Y-165758000D03*
D13*
X116840000Y-145796000D03*
D14*
X139700000Y-138176000D03*
X119380000Y-145796000D03*
X137160000Y-138176000D03*
X121920000Y-145796000D03*
X134620000Y-138176000D03*
X124460000Y-145796000D03*
X132080000Y-138176000D03*
X127000000Y-145796000D03*
X129540000Y-138176000D03*
X129540000Y-145796000D03*
X127000000Y-138176000D03*
X132080000Y-145796000D03*
X124460000Y-138176000D03*
X134620000Y-145796000D03*
X121920000Y-138176000D03*
X137160000Y-145796000D03*
X119380000Y-138176000D03*
X139700000Y-145796000D03*
X116840000Y-138176000D03*
D13*
X134620000Y-126492000D03*
D14*
X167640000Y-134112000D03*
X137160000Y-126492000D03*
X165100000Y-134112000D03*
X139700000Y-126492000D03*
X162560000Y-134112000D03*
X142240000Y-126492000D03*
X160020000Y-134112000D03*
X144780000Y-126492000D03*
X157480000Y-134112000D03*
X147320000Y-126492000D03*
X154940000Y-134112000D03*
X149860000Y-126492000D03*
X152400000Y-134112000D03*
X152400000Y-126492000D03*
X149860000Y-134112000D03*
X154940000Y-126492000D03*
X147320000Y-134112000D03*
X157480000Y-126492000D03*
X144780000Y-134112000D03*
X160020000Y-126492000D03*
X142240000Y-134112000D03*
X162560000Y-126492000D03*
X139700000Y-134112000D03*
X165100000Y-126492000D03*
X137160000Y-134112000D03*
X167640000Y-126492000D03*
X134620000Y-134112000D03*
D18*
X146812000Y-140716000D03*
D19*
X146812000Y-148336000D03*
D11*
X166116000Y-107950000D03*
D12*
X168656000Y-107950000D03*
D11*
X143637000Y-107950000D03*
D12*
X146177000Y-107950000D03*
D11*
X177292000Y-107950000D03*
D12*
X179832000Y-107950000D03*
D11*
X99060000Y-82550000D03*
D12*
X101600000Y-82550000D03*
D11*
X99060000Y-87630000D03*
D12*
X101600000Y-87630000D03*
D11*
X99060000Y-92710000D03*
D12*
X101600000Y-92710000D03*
D11*
X99060000Y-97790000D03*
D12*
X101600000Y-97790000D03*
D11*
X99060000Y-102870000D03*
D12*
X101600000Y-102870000D03*
D11*
X99060000Y-107950000D03*
D12*
X101600000Y-107950000D03*
D11*
X104648000Y-77470000D03*
D12*
X107188000Y-77470000D03*
D11*
X104648000Y-82550000D03*
D12*
X107188000Y-82550000D03*
D11*
X104648000Y-87630000D03*
D12*
X107188000Y-87630000D03*
D11*
X104648000Y-92710000D03*
D12*
X107188000Y-92710000D03*
D11*
X104648000Y-97790000D03*
D12*
X107188000Y-97790000D03*
D11*
X104648000Y-102870000D03*
D12*
X107188000Y-102870000D03*
D11*
X104648000Y-107950000D03*
D12*
X107188000Y-107950000D03*
D11*
X110236000Y-77470000D03*
D12*
X112776000Y-77470000D03*
D11*
X110236000Y-82550000D03*
D12*
X112776000Y-82550000D03*
D11*
X110236000Y-87630000D03*
D12*
X112776000Y-87630000D03*
D11*
X110236000Y-92710000D03*
D12*
X112776000Y-92710000D03*
D11*
X110236000Y-97790000D03*
D12*
X112776000Y-97790000D03*
D11*
X110236000Y-102870000D03*
D12*
X112776000Y-102870000D03*
D11*
X110236000Y-107950000D03*
D12*
X112776000Y-107950000D03*
D11*
X115824000Y-77470000D03*
D12*
X118364000Y-77470000D03*
D11*
X115824000Y-82550000D03*
D12*
X118364000Y-82550000D03*
D11*
X115824000Y-87630000D03*
D12*
X118364000Y-87630000D03*
D11*
X115824000Y-92710000D03*
D12*
X118364000Y-92710000D03*
D11*
X115824000Y-97790000D03*
D12*
X118364000Y-97790000D03*
D11*
X115824000Y-102870000D03*
D12*
X118364000Y-102870000D03*
D11*
X115824000Y-107950000D03*
D12*
X118364000Y-107950000D03*
D11*
X121412000Y-77470000D03*
D12*
X123952000Y-77470000D03*
D11*
X121412000Y-82550000D03*
D12*
X123952000Y-82550000D03*
D11*
X121412000Y-87630000D03*
D12*
X123952000Y-87630000D03*
D11*
X121412000Y-92710000D03*
D12*
X123952000Y-92710000D03*
D11*
X121412000Y-97790000D03*
D12*
X123952000Y-97790000D03*
D11*
X121412000Y-102870000D03*
D12*
X123952000Y-102870000D03*
D11*
X121412000Y-107950000D03*
D12*
X123952000Y-107950000D03*
D11*
X126873000Y-77470000D03*
D12*
X129413000Y-77470000D03*
D11*
X126873000Y-82550000D03*
D12*
X129413000Y-82550000D03*
D11*
X126873000Y-87630000D03*
D12*
X129413000Y-87630000D03*
D11*
X126873000Y-92710000D03*
D12*
X129413000Y-92710000D03*
D11*
X126873000Y-97790000D03*
D12*
X129413000Y-97790000D03*
D11*
X127000000Y-102870000D03*
D12*
X129540000Y-102870000D03*
D11*
X127000000Y-107950000D03*
D12*
X129540000Y-107950000D03*
D11*
X132588000Y-77470000D03*
D12*
X135128000Y-77470000D03*
D11*
X132588000Y-82550000D03*
D12*
X135128000Y-82550000D03*
D11*
X132588000Y-87630000D03*
D12*
X135128000Y-87630000D03*
D11*
X132588000Y-92710000D03*
D12*
X135128000Y-92710000D03*
D11*
X132588000Y-97790000D03*
D12*
X135128000Y-97790000D03*
D11*
X132588000Y-102870000D03*
D12*
X135128000Y-102870000D03*
D11*
X132588000Y-107950000D03*
D12*
X135128000Y-107950000D03*
D11*
X138049000Y-77470000D03*
D12*
X140589000Y-77470000D03*
D11*
X138049000Y-82550000D03*
D12*
X140589000Y-82550000D03*
D11*
X138049000Y-87630000D03*
D12*
X140589000Y-87630000D03*
D11*
X138049000Y-92710000D03*
D12*
X140589000Y-92710000D03*
D11*
X138049000Y-97790000D03*
D12*
X140589000Y-97790000D03*
D11*
X138049000Y-102870000D03*
D12*
X140589000Y-102870000D03*
D11*
X138049000Y-107950000D03*
D12*
X140589000Y-107950000D03*
D11*
X143637000Y-77470000D03*
D12*
X146177000Y-77470000D03*
D11*
X143637000Y-82550000D03*
D12*
X146177000Y-82550000D03*
D11*
X143637000Y-87630000D03*
D12*
X146177000Y-87630000D03*
D11*
X143637000Y-92710000D03*
D12*
X146177000Y-92710000D03*
D11*
X143637000Y-97790000D03*
D12*
X146177000Y-97790000D03*
D11*
X143637000Y-102870000D03*
D12*
X146177000Y-102870000D03*
D11*
X149225000Y-77470000D03*
D12*
X151765000Y-77470000D03*
D11*
X149352000Y-82550000D03*
D12*
X151892000Y-82550000D03*
D11*
X149352000Y-87630000D03*
D12*
X151892000Y-87630000D03*
D11*
X149352000Y-92710000D03*
D12*
X151892000Y-92710000D03*
D11*
X149352000Y-97790000D03*
D12*
X151892000Y-97790000D03*
D11*
X149352000Y-102870000D03*
D12*
X151892000Y-102870000D03*
D11*
X149352000Y-107950000D03*
D12*
X151892000Y-107950000D03*
D11*
X154940000Y-77470000D03*
D12*
X157480000Y-77470000D03*
D11*
X154940000Y-82550000D03*
D12*
X157480000Y-82550000D03*
D11*
X154940000Y-87630000D03*
D12*
X157480000Y-87630000D03*
D11*
X154940000Y-92710000D03*
D12*
X157480000Y-92710000D03*
D11*
X154940000Y-97790000D03*
D12*
X157480000Y-97790000D03*
D11*
X154940000Y-102870000D03*
D12*
X157480000Y-102870000D03*
D11*
X154940000Y-107950000D03*
D12*
X157480000Y-107950000D03*
D11*
X160528000Y-77470000D03*
D12*
X163068000Y-77470000D03*
D11*
X160528000Y-82550000D03*
D12*
X163068000Y-82550000D03*
D11*
X160528000Y-87630000D03*
D12*
X163068000Y-87630000D03*
D11*
X160528000Y-92710000D03*
D12*
X163068000Y-92710000D03*
D11*
X160528000Y-97790000D03*
D12*
X163068000Y-97790000D03*
D11*
X160528000Y-102870000D03*
D12*
X163068000Y-102870000D03*
D11*
X160528000Y-107950000D03*
D12*
X163068000Y-107950000D03*
D11*
X165989000Y-77470000D03*
D12*
X168529000Y-77470000D03*
D11*
X165989000Y-82550000D03*
D12*
X168529000Y-82550000D03*
D11*
X165989000Y-87630000D03*
D12*
X168529000Y-87630000D03*
D11*
X166116000Y-92710000D03*
D12*
X168656000Y-92710000D03*
D11*
X166116000Y-97790000D03*
D12*
X168656000Y-97790000D03*
D11*
X166116000Y-102870000D03*
D12*
X168656000Y-102870000D03*
D11*
X171577000Y-77470000D03*
D12*
X174117000Y-77470000D03*
D11*
X171577000Y-82550000D03*
D12*
X174117000Y-82550000D03*
D11*
X171577000Y-87630000D03*
D12*
X174117000Y-87630000D03*
D11*
X171577000Y-92710000D03*
D12*
X174117000Y-92710000D03*
D11*
X171704000Y-97790000D03*
D12*
X174244000Y-97790000D03*
D11*
X171704000Y-102870000D03*
D12*
X174244000Y-102870000D03*
D11*
X171704000Y-107950000D03*
D12*
X174244000Y-107950000D03*
D11*
X177165000Y-77470000D03*
D12*
X179705000Y-77470000D03*
D11*
X177165000Y-82550000D03*
D12*
X179705000Y-82550000D03*
D11*
X177165000Y-87630000D03*
D12*
X179705000Y-87630000D03*
D11*
X177165000Y-92710000D03*
D12*
X179705000Y-92710000D03*
D11*
X177165000Y-97790000D03*
D12*
X179705000Y-97790000D03*
D11*
X177292000Y-102870000D03*
D12*
X179832000Y-102870000D03*
D11*
X182753000Y-77470000D03*
D12*
X185293000Y-77470000D03*
D11*
X182753000Y-82550000D03*
D12*
X185293000Y-82550000D03*
D11*
X182753000Y-87630000D03*
D12*
X185293000Y-87630000D03*
D11*
X182753000Y-92710000D03*
D12*
X185293000Y-92710000D03*
D11*
X182753000Y-97790000D03*
D12*
X185293000Y-97790000D03*
D11*
X182753000Y-102870000D03*
D12*
X185293000Y-102870000D03*
D11*
X182753000Y-107950000D03*
D12*
X185293000Y-107950000D03*
D11*
X188341000Y-77470000D03*
D12*
X190881000Y-77470000D03*
D11*
X188341000Y-82550000D03*
D12*
X190881000Y-82550000D03*
D11*
X188341000Y-87630000D03*
D12*
X190881000Y-87630000D03*
D11*
X188341000Y-92710000D03*
D12*
X190881000Y-92710000D03*
D11*
X188341000Y-97790000D03*
D12*
X190881000Y-97790000D03*
D11*
X188341000Y-102870000D03*
D12*
X190881000Y-102870000D03*
D11*
X188341000Y-107950000D03*
D12*
X190881000Y-107950000D03*
D11*
X193929000Y-77470000D03*
D12*
X196469000Y-77470000D03*
D11*
X193929000Y-82550000D03*
D12*
X196469000Y-82550000D03*
D11*
X193929000Y-87630000D03*
D12*
X196469000Y-87630000D03*
D11*
X193929000Y-92710000D03*
D12*
X196469000Y-92710000D03*
D11*
X193929000Y-97790000D03*
D12*
X196469000Y-97790000D03*
D11*
X193929000Y-102870000D03*
D12*
X196469000Y-102870000D03*
D11*
X193929000Y-107950000D03*
D12*
X196469000Y-107950000D03*
D15*
X99568000Y-144780000D03*
D16*
X99568000Y-146780000D03*
X99568000Y-148780000D03*
X99568000Y-150780000D03*
X99568000Y-152780000D03*
X99568000Y-154780000D03*
D15*
X99568000Y-124968000D03*
D16*
X99568000Y-122968000D03*
X99568000Y-120968000D03*
X99568000Y-118968000D03*
X99568000Y-116968000D03*
X99568000Y-114968000D03*
X99568000Y-112968000D03*
D15*
X99568000Y-141224000D03*
D16*
X99568000Y-139224000D03*
X99568000Y-137224000D03*
X99568000Y-135224000D03*
X99568000Y-133224000D03*
X99568000Y-131224000D03*
X99568000Y-129224000D03*
D15*
X196088000Y-124968000D03*
D16*
X196088000Y-122968000D03*
X196088000Y-120968000D03*
X196088000Y-118968000D03*
X196088000Y-116968000D03*
X196088000Y-114968000D03*
X196088000Y-112968000D03*
D15*
X196088000Y-144780000D03*
D16*
X196088000Y-146780000D03*
X196088000Y-148780000D03*
X196088000Y-150780000D03*
X196088000Y-152780000D03*
X196088000Y-154780000D03*
D20*
X157306000Y-144526000D03*
X152306000Y-144526000D03*
X162306000Y-144526000D03*
D17*
X156972000Y-160456000D03*
X156972000Y-155956000D03*
X163472000Y-160456000D03*
X163472000Y-155956000D03*
X153598000Y-165608000D03*
X149098000Y-165608000D03*
X153598000Y-159108000D03*
X149098000Y-159108000D03*
X163322000Y-163648000D03*
X163322000Y-168148000D03*
X156822000Y-163648000D03*
X156822000Y-168148000D03*
D21*
X101473000Y-170688000D03*
X194056000Y-170688000D03*
X105029000Y-114173000D03*
X190500000Y-114173000D03*
D12*
X114554000Y-149098000D03*
X117094000Y-149098000D03*
X119634000Y-149098000D03*
X122174000Y-149098000D03*
X124714000Y-149098000D03*
X127254000Y-149098000D03*
X129794000Y-149098000D03*
X132334000Y-149098000D03*
X132334000Y-171958000D03*
X129794000Y-171958000D03*
X127254000Y-171958000D03*
X124714000Y-171958000D03*
X122174000Y-171958000D03*
X119634000Y-171958000D03*
X117094000Y-171958000D03*
X114554000Y-171958000D03*
D22*
X179451000Y-154813000D03*
X176022000Y-157734000D03*
X162052000Y-129032000D03*
X143256000Y-130175000D03*
X178562000Y-150622000D03*
X188468000Y-146812000D03*
X165735000Y-138430000D03*
X189421000Y-148780000D03*
X169291000Y-141986000D03*
X103124000Y-109728000D03*
X108712000Y-110744000D03*
X114300000Y-111760000D03*
X119888000Y-112776000D03*
X125476000Y-113792000D03*
X131064000Y-114808000D03*
X136652000Y-115824000D03*
X111760000Y-132080000D03*
X147828000Y-122936000D03*
X112014000Y-129794000D03*
X151892000Y-121920000D03*
X112522000Y-127254000D03*
X156464000Y-120904000D03*
X106172000Y-131572000D03*
X160528000Y-119888000D03*
X104013000Y-132080000D03*
X163195000Y-118872000D03*
X165735000Y-117856000D03*
X102235000Y-131191000D03*
X168148000Y-116840000D03*
D23*
X123952000Y-108077000D02*
X123825000Y-107950000D01*
X167767000Y-152400000D02*
X167767000Y-138684000D01*
X165100000Y-136017000D02*
X160655000Y-136017000D01*
X167767000Y-138684000D02*
X165100000Y-136017000D01*
X179451000Y-154813000D02*
X170180000Y-154813000D01*
X170180000Y-154813000D02*
X167767000Y-152400000D01*
X160020000Y-135382000D02*
X160020000Y-134112000D01*
X160655000Y-136017000D02*
X160020000Y-135382000D01*
X160020000Y-130556000D02*
X157734000Y-128270000D01*
X160020000Y-130556000D02*
X160020000Y-134112000D01*
X157734000Y-128270000D02*
X156210000Y-128270000D01*
X117602000Y-128270000D02*
X156210000Y-128270000D01*
X156210000Y-128270000D02*
X157734000Y-128270000D01*
X99568000Y-144780000D02*
X101092000Y-144780000D01*
X101092000Y-144780000D02*
X117602000Y-128270000D01*
X129540000Y-108077000D02*
X129413000Y-107950000D01*
D24*
X132207000Y-143256000D02*
X119126000Y-143256000D01*
X132207000Y-143256000D02*
X134620000Y-145669000D01*
X134620000Y-145796000D02*
X134620000Y-145669000D01*
X185039000Y-147701000D02*
X185039000Y-153924000D01*
X181483000Y-157480000D02*
X185039000Y-153924000D01*
X176276000Y-157480000D02*
X181483000Y-157480000D01*
X176276000Y-157480000D02*
X176022000Y-157734000D01*
X183007000Y-147701000D02*
X185039000Y-147701000D01*
X185039000Y-147701000D02*
X185039000Y-133350000D01*
X185039000Y-133350000D02*
X184150000Y-132461000D01*
X184150000Y-132461000D02*
X183007000Y-132461000D01*
X134620000Y-148082000D02*
X146558000Y-148082000D01*
X146558000Y-148082000D02*
X146812000Y-148336000D01*
X134620000Y-148082000D02*
X134620000Y-145796000D01*
X133604000Y-149098000D02*
X134620000Y-148082000D01*
X99568000Y-154780000D02*
X103030000Y-154780000D01*
X103030000Y-154780000D02*
X114554000Y-143256000D01*
X114554000Y-143256000D02*
X119126000Y-143256000D01*
X119380000Y-145796000D02*
X119380000Y-143256000D01*
X119380000Y-143256000D02*
X119126000Y-143256000D01*
D23*
X119380000Y-145796000D02*
X119380000Y-145288000D01*
D24*
X132334000Y-149098000D02*
X133604000Y-149098000D01*
D23*
X135128000Y-108077000D02*
X135001000Y-107950000D01*
X140589000Y-77470000D02*
X140589000Y-77597000D01*
X140589000Y-77597000D02*
X142748000Y-79756000D01*
X151765000Y-78867000D02*
X151765000Y-77470000D01*
X150876000Y-79756000D02*
X151765000Y-78867000D01*
X142748000Y-79756000D02*
X150876000Y-79756000D01*
X140716000Y-108077000D02*
X140589000Y-107950000D01*
X151892000Y-77597000D02*
X151765000Y-77470000D01*
X146304000Y-108077000D02*
X146177000Y-107950000D01*
X157353000Y-83439000D02*
X157353000Y-82550000D01*
D24*
X152306000Y-144526000D02*
X149352000Y-144526000D01*
X149352000Y-144526000D02*
X148082000Y-145796000D01*
X123952000Y-141478000D02*
X133858000Y-141478000D01*
X133858000Y-141478000D02*
X136017000Y-143637000D01*
X137160000Y-145796000D02*
X137160000Y-144780000D01*
X137160000Y-144780000D02*
X136017000Y-143637000D01*
X136017000Y-143637000D02*
X133858000Y-141478000D01*
X169926000Y-162560000D02*
X174879000Y-162560000D01*
X166728000Y-165758000D02*
X169926000Y-162560000D01*
X184912000Y-159004000D02*
X186817000Y-157099000D01*
X178435000Y-159004000D02*
X184912000Y-159004000D01*
X174879000Y-162560000D02*
X178435000Y-159004000D01*
X186817000Y-132207000D02*
X186817000Y-157099000D01*
X184531000Y-129921000D02*
X183007000Y-129921000D01*
X184531000Y-129921000D02*
X186817000Y-132207000D01*
X191008000Y-157099000D02*
X186817000Y-157099000D01*
X196088000Y-152780000D02*
X195327000Y-152780000D01*
X195327000Y-152780000D02*
X191008000Y-157099000D01*
X183007000Y-127381000D02*
X183007000Y-129921000D01*
X175387000Y-127381000D02*
X183007000Y-127381000D01*
X139700000Y-145796000D02*
X148082000Y-145796000D01*
X148082000Y-145796000D02*
X148336000Y-145796000D01*
X148336000Y-145796000D02*
X153598000Y-151058000D01*
X153598000Y-151058000D02*
X153598000Y-159108000D01*
X166696000Y-165758000D02*
X166728000Y-165758000D01*
X119380000Y-140208000D02*
X120650000Y-141478000D01*
X120650000Y-141478000D02*
X121158000Y-141478000D01*
X121158000Y-141478000D02*
X123952000Y-141478000D01*
X118110000Y-140208000D02*
X119380000Y-140208000D01*
X119380000Y-140208000D02*
X119380000Y-138176000D01*
X101982000Y-152780000D02*
X114554000Y-140208000D01*
X114554000Y-140208000D02*
X118110000Y-140208000D01*
X99568000Y-152780000D02*
X101982000Y-152780000D01*
X121158000Y-141478000D02*
X123952000Y-141478000D01*
X139700000Y-145796000D02*
X137160000Y-145796000D01*
X118110000Y-140208000D02*
X114554000Y-140208000D01*
X166696000Y-159258000D02*
X164670000Y-159258000D01*
X164670000Y-159258000D02*
X163472000Y-160456000D01*
X166696000Y-165758000D02*
X165432000Y-165758000D01*
X165432000Y-165758000D02*
X163322000Y-163648000D01*
X163322000Y-163648000D02*
X156822000Y-163648000D01*
X163472000Y-160456000D02*
X163472000Y-163498000D01*
X163472000Y-163498000D02*
X163322000Y-163648000D01*
X156972000Y-160456000D02*
X163472000Y-160456000D01*
X153598000Y-159108000D02*
X155624000Y-159108000D01*
X155624000Y-159108000D02*
X156972000Y-160456000D01*
X156822000Y-163648000D02*
X156822000Y-160606000D01*
X156822000Y-160606000D02*
X156972000Y-160456000D01*
X153598000Y-165608000D02*
X154862000Y-165608000D01*
X154862000Y-165608000D02*
X156822000Y-163648000D01*
D23*
X163322000Y-160606000D02*
X163472000Y-160456000D01*
X163322000Y-163648000D02*
X163322000Y-164338000D01*
X153598000Y-165608000D02*
X153598000Y-166442000D01*
X163472000Y-163498000D02*
X163322000Y-163648000D01*
X156972000Y-163498000D02*
X156822000Y-163648000D01*
X168656000Y-108077000D02*
X168529000Y-107950000D01*
D24*
X138938000Y-140081000D02*
X141859000Y-140081000D01*
X141859000Y-140081000D02*
X144780000Y-137160000D01*
X138938000Y-140081000D02*
X137160000Y-138303000D01*
X144780000Y-134112000D02*
X144780000Y-137160000D01*
X137160000Y-138176000D02*
X137160000Y-138303000D01*
X137160000Y-138176000D02*
X137160000Y-138430000D01*
X162941000Y-129921000D02*
X162052000Y-129032000D01*
X175387000Y-129921000D02*
X162941000Y-129921000D01*
X143256000Y-130175000D02*
X143256000Y-130302000D01*
X188468000Y-146812000D02*
X188500000Y-146780000D01*
X188500000Y-146780000D02*
X196088000Y-146780000D01*
X178562000Y-131445000D02*
X178562000Y-150622000D01*
X175387000Y-129921000D02*
X177038000Y-129921000D01*
X177038000Y-129921000D02*
X178562000Y-131445000D01*
X99568000Y-146780000D02*
X100997000Y-146780000D01*
X144780000Y-131826000D02*
X144780000Y-134112000D01*
X143256000Y-130302000D02*
X144780000Y-131826000D01*
X142474002Y-129520002D02*
X143256000Y-130302000D01*
X118256998Y-129520002D02*
X142474002Y-129520002D01*
X100997000Y-146780000D02*
X118256998Y-129520002D01*
D23*
X174244000Y-108077000D02*
X174117000Y-107950000D01*
X137668000Y-141351000D02*
X143002000Y-141351000D01*
X137668000Y-141351000D02*
X134620000Y-138303000D01*
X143002000Y-141351000D02*
X147447000Y-136906000D01*
X147447000Y-136906000D02*
X164211000Y-136906000D01*
X164211000Y-136906000D02*
X165735000Y-138430000D01*
X169926000Y-134239000D02*
X169926000Y-141351000D01*
X196088000Y-148780000D02*
X189421000Y-148780000D01*
X171704000Y-132461000D02*
X169926000Y-134239000D01*
X171704000Y-132461000D02*
X175387000Y-132461000D01*
X169926000Y-141351000D02*
X169291000Y-141986000D01*
X134620000Y-138176000D02*
X134620000Y-138303000D01*
X141795500Y-135826500D02*
X135826500Y-135826500D01*
X135826500Y-135826500D02*
X134620000Y-137033000D01*
X119126000Y-130810000D02*
X141478000Y-130810000D01*
X134620000Y-138176000D02*
X134620000Y-137033000D01*
X141795500Y-135826500D02*
X142240000Y-135382000D01*
X142240000Y-135382000D02*
X142240000Y-134112000D01*
X101156000Y-148780000D02*
X119126000Y-130810000D01*
X142240000Y-131572000D02*
X142240000Y-134112000D01*
X141478000Y-130810000D02*
X142240000Y-131572000D01*
X99568000Y-148780000D02*
X101156000Y-148780000D01*
X142240000Y-134112000D02*
X142240000Y-134366000D01*
X196024000Y-148844000D02*
X196088000Y-148780000D01*
X179832000Y-108077000D02*
X179705000Y-107950000D01*
D24*
X119888000Y-132080000D02*
X138684000Y-132080000D01*
X101188000Y-150780000D02*
X119888000Y-132080000D01*
X99568000Y-150780000D02*
X101188000Y-150780000D01*
X139700000Y-133096000D02*
X139700000Y-134112000D01*
X138684000Y-132080000D02*
X139700000Y-133096000D01*
D23*
X185420000Y-108077000D02*
X185293000Y-107950000D01*
X191008000Y-108077000D02*
X190881000Y-107950000D01*
X103124000Y-109728000D02*
X195072000Y-109728000D01*
X103124000Y-109728000D02*
X101219000Y-109728000D01*
X101219000Y-109728000D02*
X99568000Y-111379000D01*
X99568000Y-111379000D02*
X99568000Y-112968000D01*
X99568000Y-112968000D02*
X99568000Y-112776000D01*
X196088000Y-110744000D02*
X196088000Y-112968000D01*
X195072000Y-109728000D02*
X196088000Y-110744000D01*
X195896000Y-112776000D02*
X196088000Y-112968000D01*
X138049000Y-77470000D02*
X138049000Y-75692000D01*
X138049000Y-75692000D02*
X138176000Y-75692000D01*
X132461000Y-77470000D02*
X132461000Y-75692000D01*
X132461000Y-75692000D02*
X132588000Y-75692000D01*
X126873000Y-77470000D02*
X126873000Y-75692000D01*
X126873000Y-75692000D02*
X127000000Y-75692000D01*
X121285000Y-77470000D02*
X121285000Y-75692000D01*
X121285000Y-75692000D02*
X121412000Y-75692000D01*
X115824000Y-77470000D02*
X115824000Y-75692000D01*
X110236000Y-77470000D02*
X110236000Y-75692000D01*
X104648000Y-77470000D02*
X104648000Y-75692000D01*
X143637000Y-77470000D02*
X143637000Y-76073000D01*
X99060000Y-76200000D02*
X99060000Y-77470000D01*
X99568000Y-75692000D02*
X99060000Y-76200000D01*
X143256000Y-75692000D02*
X138176000Y-75692000D01*
X138176000Y-75692000D02*
X132588000Y-75692000D01*
X132588000Y-75692000D02*
X127000000Y-75692000D01*
X127000000Y-75692000D02*
X121412000Y-75692000D01*
X121412000Y-75692000D02*
X115824000Y-75692000D01*
X115824000Y-75692000D02*
X110236000Y-75692000D01*
X110236000Y-75692000D02*
X104648000Y-75692000D01*
X104648000Y-75692000D02*
X99568000Y-75692000D01*
X143637000Y-76073000D02*
X143256000Y-75692000D01*
X194691000Y-114046000D02*
X194691000Y-112141000D01*
X194691000Y-112141000D02*
X193294000Y-110744000D01*
X196088000Y-114968000D02*
X195613000Y-114968000D01*
X195613000Y-114968000D02*
X194691000Y-114046000D01*
X193294000Y-110744000D02*
X108712000Y-110744000D01*
X108712000Y-110744000D02*
X102235000Y-110744000D01*
X100551000Y-114968000D02*
X99568000Y-114968000D01*
X101473000Y-114046000D02*
X100551000Y-114968000D01*
X101473000Y-111506000D02*
X101473000Y-114046000D01*
X102235000Y-110744000D02*
X101473000Y-111506000D01*
X99060000Y-81280000D02*
X99060000Y-82550000D01*
X104648000Y-80772000D02*
X99568000Y-80772000D01*
X99568000Y-80772000D02*
X99060000Y-81280000D01*
X104648000Y-82550000D02*
X104648000Y-80772000D01*
X110236000Y-80772000D02*
X104648000Y-80772000D01*
X110236000Y-82550000D02*
X110236000Y-80772000D01*
X115824000Y-80772000D02*
X110236000Y-80772000D01*
X115824000Y-82550000D02*
X115824000Y-80772000D01*
X121412000Y-80772000D02*
X115824000Y-80772000D01*
X121285000Y-82550000D02*
X121285000Y-80772000D01*
X126492000Y-80772000D02*
X121412000Y-80772000D01*
X121285000Y-80772000D02*
X121412000Y-80772000D01*
X126873000Y-82550000D02*
X126873000Y-80772000D01*
X132588000Y-80772000D02*
X126492000Y-80772000D01*
X126873000Y-80772000D02*
X126492000Y-80772000D01*
X132461000Y-82550000D02*
X132461000Y-80772000D01*
X138176000Y-80772000D02*
X132588000Y-80772000D01*
X132461000Y-80772000D02*
X132588000Y-80772000D01*
X138049000Y-82550000D02*
X138049000Y-80772000D01*
X143637000Y-81153000D02*
X143256000Y-80772000D01*
X143256000Y-80772000D02*
X138176000Y-80772000D01*
X143637000Y-82550000D02*
X143637000Y-81153000D01*
X138049000Y-80772000D02*
X138176000Y-80772000D01*
X194437000Y-118110000D02*
X189357000Y-118110000D01*
X195579000Y-116968000D02*
X194437000Y-118110000D01*
X175514000Y-115824000D02*
X171450000Y-111760000D01*
X187071000Y-115824000D02*
X175514000Y-115824000D01*
X189357000Y-118110000D02*
X187071000Y-115824000D01*
X196088000Y-116968000D02*
X195579000Y-116968000D01*
X99568000Y-116968000D02*
X100585000Y-116968000D01*
X100585000Y-116968000D02*
X101600000Y-117983000D01*
X195960000Y-116840000D02*
X196088000Y-116968000D01*
X138049000Y-87630000D02*
X138049000Y-85852000D01*
X138049000Y-85852000D02*
X138176000Y-85852000D01*
X132461000Y-87630000D02*
X132461000Y-85852000D01*
X132461000Y-85852000D02*
X132080000Y-85852000D01*
X126873000Y-87630000D02*
X126873000Y-85852000D01*
X126873000Y-85852000D02*
X126492000Y-85852000D01*
X121285000Y-87630000D02*
X121285000Y-85852000D01*
X121285000Y-85852000D02*
X121412000Y-85852000D01*
X115824000Y-87630000D02*
X115824000Y-85852000D01*
X110236000Y-85852000D02*
X110236000Y-87630000D01*
X104648000Y-87630000D02*
X104648000Y-85852000D01*
X143637000Y-87630000D02*
X143637000Y-86233000D01*
X99060000Y-86360000D02*
X99060000Y-87630000D01*
X99568000Y-85852000D02*
X99060000Y-86360000D01*
X143256000Y-85852000D02*
X138176000Y-85852000D01*
X138176000Y-85852000D02*
X132080000Y-85852000D01*
X132080000Y-85852000D02*
X126492000Y-85852000D01*
X126492000Y-85852000D02*
X121412000Y-85852000D01*
X121412000Y-85852000D02*
X115824000Y-85852000D01*
X115824000Y-85852000D02*
X110236000Y-85852000D01*
X110236000Y-85852000D02*
X104648000Y-85852000D01*
X104648000Y-85852000D02*
X99568000Y-85852000D01*
X143637000Y-86233000D02*
X143256000Y-85852000D01*
X108077000Y-117983000D02*
X114300000Y-111760000D01*
X101600000Y-117983000D02*
X108077000Y-117983000D01*
X114300000Y-111760000D02*
X171450000Y-111760000D01*
X186690000Y-116713000D02*
X174879000Y-116713000D01*
X174879000Y-116713000D02*
X170942000Y-112776000D01*
X188945000Y-118968000D02*
X186690000Y-116713000D01*
X196088000Y-118968000D02*
X188945000Y-118968000D01*
X109251000Y-118968000D02*
X115443000Y-112776000D01*
X99568000Y-118968000D02*
X109251000Y-118968000D01*
X170942000Y-112776000D02*
X119888000Y-112776000D01*
X119888000Y-112776000D02*
X115443000Y-112776000D01*
X138049000Y-92710000D02*
X138049000Y-90932000D01*
X138049000Y-90932000D02*
X138176000Y-90932000D01*
X132461000Y-92710000D02*
X132461000Y-90932000D01*
X132461000Y-90932000D02*
X132080000Y-90932000D01*
X126873000Y-92710000D02*
X126873000Y-90932000D01*
X126873000Y-90932000D02*
X127000000Y-90932000D01*
X121285000Y-92710000D02*
X121285000Y-90932000D01*
X121285000Y-90932000D02*
X120904000Y-90932000D01*
X115824000Y-92710000D02*
X115824000Y-90932000D01*
X110236000Y-92710000D02*
X110236000Y-90932000D01*
X104648000Y-92710000D02*
X104648000Y-91948000D01*
X104648000Y-91948000D02*
X104648000Y-90932000D01*
X99060000Y-92710000D02*
X99060000Y-91440000D01*
X143637000Y-91313000D02*
X143637000Y-92710000D01*
X143256000Y-90932000D02*
X143637000Y-91313000D01*
X99568000Y-90932000D02*
X104648000Y-90932000D01*
X104648000Y-90932000D02*
X110236000Y-90932000D01*
X110236000Y-90932000D02*
X115824000Y-90932000D01*
X115824000Y-90932000D02*
X120904000Y-90932000D01*
X120904000Y-90932000D02*
X127000000Y-90932000D01*
X127000000Y-90932000D02*
X132080000Y-90932000D01*
X132080000Y-90932000D02*
X138176000Y-90932000D01*
X138176000Y-90932000D02*
X143256000Y-90932000D01*
X99060000Y-91440000D02*
X99568000Y-90932000D01*
X186372500Y-117538500D02*
X174434500Y-117538500D01*
X174434500Y-117538500D02*
X170688000Y-113792000D01*
X189802000Y-120968000D02*
X186372500Y-117538500D01*
X196088000Y-120968000D02*
X189802000Y-120968000D01*
X99568000Y-120968000D02*
X108394000Y-120968000D01*
X108394000Y-120968000D02*
X115570000Y-113792000D01*
X115570000Y-113792000D02*
X125476000Y-113792000D01*
X125476000Y-113792000D02*
X170688000Y-113792000D01*
X196024000Y-120904000D02*
X196088000Y-120968000D01*
X115824000Y-97790000D02*
X115824000Y-96012000D01*
X110236000Y-97790000D02*
X110236000Y-96012000D01*
X104648000Y-97790000D02*
X104648000Y-96012000D01*
X121285000Y-97790000D02*
X121285000Y-96012000D01*
X121285000Y-96012000D02*
X121412000Y-96012000D01*
X126873000Y-97790000D02*
X126873000Y-96012000D01*
X126873000Y-96012000D02*
X127000000Y-96012000D01*
X132461000Y-97790000D02*
X132461000Y-96012000D01*
X132461000Y-96012000D02*
X132588000Y-96012000D01*
X138049000Y-97790000D02*
X138049000Y-96012000D01*
X138049000Y-96012000D02*
X138176000Y-96012000D01*
X143637000Y-97790000D02*
X143637000Y-96393000D01*
X99060000Y-96520000D02*
X99060000Y-97790000D01*
X99568000Y-96012000D02*
X99060000Y-96520000D01*
X143256000Y-96012000D02*
X138176000Y-96012000D01*
X138176000Y-96012000D02*
X132588000Y-96012000D01*
X132588000Y-96012000D02*
X127000000Y-96012000D01*
X127000000Y-96012000D02*
X121412000Y-96012000D01*
X121412000Y-96012000D02*
X115824000Y-96012000D01*
X115824000Y-96012000D02*
X110236000Y-96012000D01*
X110236000Y-96012000D02*
X104648000Y-96012000D01*
X104648000Y-96012000D02*
X99568000Y-96012000D01*
X143637000Y-96393000D02*
X143256000Y-96012000D01*
X186055000Y-118491000D02*
X174117000Y-118491000D01*
X174117000Y-118491000D02*
X170434000Y-114808000D01*
X190532000Y-122968000D02*
X196088000Y-122968000D01*
X190532000Y-122968000D02*
X186055000Y-118491000D01*
X170434000Y-114808000D02*
X131064000Y-114808000D01*
X99568000Y-122968000D02*
X107664000Y-122968000D01*
X107664000Y-122968000D02*
X115824000Y-114808000D01*
X131064000Y-114808000D02*
X115824000Y-114808000D01*
X138049000Y-102870000D02*
X138049000Y-101092000D01*
X138049000Y-101092000D02*
X137668000Y-101092000D01*
X132461000Y-102870000D02*
X132461000Y-101092000D01*
X132461000Y-101092000D02*
X132588000Y-101092000D01*
X121285000Y-102870000D02*
X121285000Y-101092000D01*
X121285000Y-101092000D02*
X121412000Y-101092000D01*
X126873000Y-102870000D02*
X126873000Y-101092000D01*
X126873000Y-101092000D02*
X127000000Y-101092000D01*
X115824000Y-102870000D02*
X115824000Y-101092000D01*
X110236000Y-102870000D02*
X110236000Y-101092000D01*
X104648000Y-102870000D02*
X104648000Y-101092000D01*
X99060000Y-102870000D02*
X99060000Y-101600000D01*
X143637000Y-101473000D02*
X143637000Y-102870000D01*
X143256000Y-101092000D02*
X143637000Y-101473000D01*
X99568000Y-101092000D02*
X104648000Y-101092000D01*
X104648000Y-101092000D02*
X110236000Y-101092000D01*
X110236000Y-101092000D02*
X115824000Y-101092000D01*
X115824000Y-101092000D02*
X121412000Y-101092000D01*
X121412000Y-101092000D02*
X127000000Y-101092000D01*
X127000000Y-101092000D02*
X132588000Y-101092000D01*
X132588000Y-101092000D02*
X137668000Y-101092000D01*
X137668000Y-101092000D02*
X143256000Y-101092000D01*
X99060000Y-101600000D02*
X99568000Y-101092000D01*
X185801000Y-119380000D02*
X173736000Y-119380000D01*
X173736000Y-119380000D02*
X170180000Y-115824000D01*
X191389000Y-124968000D02*
X185801000Y-119380000D01*
X196088000Y-124968000D02*
X191389000Y-124968000D01*
X99568000Y-124968000D02*
X106934000Y-124968000D01*
X106934000Y-124968000D02*
X116078000Y-115824000D01*
X116078000Y-115824000D02*
X136652000Y-115824000D01*
X136652000Y-115824000D02*
X170180000Y-115824000D01*
X138049000Y-107950000D02*
X138049000Y-106172000D01*
X138049000Y-106172000D02*
X137668000Y-106172000D01*
X132461000Y-107950000D02*
X132461000Y-106172000D01*
X132461000Y-106172000D02*
X132588000Y-106172000D01*
X126873000Y-107950000D02*
X126873000Y-106172000D01*
X126873000Y-106172000D02*
X127000000Y-106172000D01*
X121285000Y-107950000D02*
X121285000Y-106172000D01*
X121285000Y-106172000D02*
X121412000Y-106172000D01*
X115824000Y-107950000D02*
X115824000Y-106172000D01*
X110236000Y-107950000D02*
X110236000Y-106172000D01*
X104648000Y-107950000D02*
X104648000Y-106172000D01*
X143637000Y-107950000D02*
X143637000Y-106553000D01*
X99060000Y-106680000D02*
X99060000Y-107950000D01*
X99568000Y-106172000D02*
X99060000Y-106680000D01*
X143256000Y-106172000D02*
X137668000Y-106172000D01*
X137668000Y-106172000D02*
X132588000Y-106172000D01*
X132588000Y-106172000D02*
X127000000Y-106172000D01*
X127000000Y-106172000D02*
X121412000Y-106172000D01*
X121412000Y-106172000D02*
X115824000Y-106172000D01*
X115824000Y-106172000D02*
X110236000Y-106172000D01*
X110236000Y-106172000D02*
X104648000Y-106172000D01*
X104648000Y-106172000D02*
X99568000Y-106172000D01*
X143637000Y-106553000D02*
X143256000Y-106172000D01*
X188087000Y-130175000D02*
X183388000Y-125476000D01*
X183388000Y-125476000D02*
X170942000Y-125476000D01*
X147828000Y-122936000D02*
X168402000Y-122936000D01*
X170942000Y-125476000D02*
X168402000Y-122936000D01*
X196088000Y-141224000D02*
X189337002Y-141224000D01*
X188087000Y-139973998D02*
X188087000Y-130175000D01*
X189337002Y-141224000D02*
X188087000Y-139973998D01*
X102616000Y-141224000D02*
X111760000Y-132080000D01*
X111760000Y-132080000D02*
X120904000Y-122936000D01*
X99568000Y-141224000D02*
X102616000Y-141224000D01*
X120904000Y-122936000D02*
X147828000Y-122936000D01*
X154813000Y-77470000D02*
X154813000Y-75692000D01*
X154813000Y-75692000D02*
X154940000Y-75692000D01*
X160020000Y-75692000D02*
X154940000Y-75692000D01*
X154940000Y-75692000D02*
X149860000Y-75692000D01*
X149225000Y-76327000D02*
X149225000Y-77470000D01*
X149860000Y-75692000D02*
X149225000Y-76327000D01*
X188341000Y-77470000D02*
X188341000Y-75692000D01*
X188341000Y-75692000D02*
X187960000Y-75692000D01*
X182753000Y-77470000D02*
X182753000Y-75692000D01*
X182753000Y-75692000D02*
X182880000Y-75692000D01*
X177165000Y-77470000D02*
X177165000Y-75692000D01*
X177165000Y-75692000D02*
X177292000Y-75692000D01*
X171577000Y-77470000D02*
X171577000Y-75692000D01*
X171577000Y-75692000D02*
X171704000Y-75692000D01*
X165989000Y-77470000D02*
X165989000Y-75692000D01*
X165989000Y-75692000D02*
X165608000Y-75692000D01*
X160020000Y-75692000D02*
X165608000Y-75692000D01*
X165608000Y-75692000D02*
X171704000Y-75692000D01*
X171704000Y-75692000D02*
X177292000Y-75692000D01*
X177292000Y-75692000D02*
X182880000Y-75692000D01*
X182880000Y-75692000D02*
X187960000Y-75692000D01*
X187960000Y-75692000D02*
X193548000Y-75692000D01*
X193929000Y-76073000D02*
X193929000Y-77470000D01*
X193548000Y-75692000D02*
X193929000Y-76073000D01*
X160020000Y-75692000D02*
X160274000Y-75692000D01*
X160274000Y-75692000D02*
X160401000Y-75819000D01*
X160401000Y-77470000D02*
X160401000Y-75819000D01*
X188976000Y-129730010D02*
X188976000Y-138049000D01*
X183864495Y-124618505D02*
X171227505Y-124618505D01*
X171227505Y-124618505D02*
X168529000Y-121920000D01*
X183864495Y-124618505D02*
X188976000Y-129730010D01*
X196088000Y-139224000D02*
X190151000Y-139224000D01*
X190151000Y-139224000D02*
X188976000Y-138049000D01*
X151892000Y-121920000D02*
X168529000Y-121920000D01*
X151892000Y-121920000D02*
X119888000Y-121920000D01*
X119888000Y-121920000D02*
X119126000Y-122682000D01*
X119888000Y-121920000D02*
X119126000Y-122682000D01*
X102584000Y-139224000D02*
X112014000Y-129794000D01*
X112014000Y-129794000D02*
X119126000Y-122682000D01*
X99568000Y-139224000D02*
X102584000Y-139224000D01*
X154813000Y-82550000D02*
X154813000Y-80772000D01*
X154813000Y-80772000D02*
X154940000Y-80772000D01*
X160401000Y-82550000D02*
X160401000Y-80772000D01*
X160401000Y-80772000D02*
X160528000Y-80772000D01*
X165989000Y-82550000D02*
X165989000Y-80772000D01*
X165989000Y-80772000D02*
X165608000Y-80772000D01*
X171577000Y-82550000D02*
X171577000Y-80772000D01*
X171577000Y-80772000D02*
X171704000Y-80772000D01*
X177165000Y-82550000D02*
X177165000Y-80772000D01*
X177165000Y-80772000D02*
X177292000Y-80772000D01*
X182753000Y-82550000D02*
X182753000Y-80772000D01*
X182753000Y-80772000D02*
X182880000Y-80772000D01*
X188341000Y-82550000D02*
X188341000Y-80772000D01*
X188341000Y-80772000D02*
X187960000Y-80772000D01*
X149225000Y-82550000D02*
X149225000Y-81407000D01*
X149860000Y-80772000D02*
X154940000Y-80772000D01*
X149225000Y-81407000D02*
X149860000Y-80772000D01*
X154940000Y-80772000D02*
X160528000Y-80772000D01*
X160528000Y-80772000D02*
X165608000Y-80772000D01*
X165608000Y-80772000D02*
X171704000Y-80772000D01*
X171704000Y-80772000D02*
X177292000Y-80772000D01*
X177292000Y-80772000D02*
X182880000Y-80772000D01*
X182880000Y-80772000D02*
X187960000Y-80772000D01*
X193929000Y-81153000D02*
X193929000Y-82550000D01*
X187960000Y-80772000D02*
X193548000Y-80772000D01*
X193548000Y-80772000D02*
X193929000Y-81153000D01*
X189865000Y-129413000D02*
X189865000Y-136017000D01*
X184213500Y-123761500D02*
X171513500Y-123761500D01*
X171513500Y-123761500D02*
X168656000Y-120904000D01*
X191072000Y-137224000D02*
X196088000Y-137224000D01*
X191072000Y-137224000D02*
X189865000Y-136017000D01*
X184213500Y-123761500D02*
X189865000Y-129413000D01*
X156464000Y-120904000D02*
X168656000Y-120904000D01*
X195580000Y-137160000D02*
X196088000Y-137224000D01*
X118872000Y-120904000D02*
X156464000Y-120904000D01*
X112522000Y-127254000D02*
X118872000Y-120904000D01*
X102552000Y-137224000D02*
X99568000Y-137224000D01*
X102552000Y-137224000D02*
X112522000Y-127254000D01*
X165989000Y-87630000D02*
X165989000Y-85852000D01*
X165989000Y-85852000D02*
X166116000Y-85852000D01*
X160401000Y-87630000D02*
X160401000Y-85852000D01*
X160401000Y-85852000D02*
X160528000Y-85852000D01*
X154813000Y-87630000D02*
X154813000Y-85852000D01*
X154813000Y-85852000D02*
X154940000Y-85852000D01*
X196024000Y-137160000D02*
X196088000Y-137224000D01*
X171577000Y-87630000D02*
X171577000Y-85852000D01*
X171577000Y-85852000D02*
X171704000Y-85852000D01*
X177165000Y-87630000D02*
X177165000Y-85852000D01*
X177165000Y-85852000D02*
X176784000Y-85852000D01*
X182753000Y-87630000D02*
X182753000Y-85852000D01*
X182753000Y-85852000D02*
X182880000Y-85852000D01*
X188341000Y-87630000D02*
X188341000Y-85852000D01*
X188341000Y-85852000D02*
X188468000Y-85852000D01*
X149225000Y-87630000D02*
X149225000Y-86487000D01*
X149225000Y-86487000D02*
X149860000Y-85852000D01*
X149860000Y-85852000D02*
X154940000Y-85852000D01*
X154940000Y-85852000D02*
X160528000Y-85852000D01*
X160528000Y-85852000D02*
X166116000Y-85852000D01*
X166116000Y-85852000D02*
X171704000Y-85852000D01*
X171704000Y-85852000D02*
X176784000Y-85852000D01*
X176784000Y-85852000D02*
X182880000Y-85852000D01*
X193929000Y-86233000D02*
X193929000Y-87630000D01*
X193548000Y-85852000D02*
X193929000Y-86233000D01*
X182880000Y-85852000D02*
X188468000Y-85852000D01*
X188468000Y-85852000D02*
X193548000Y-85852000D01*
X184594500Y-122872500D02*
X171894500Y-122872500D01*
X160528000Y-119888000D02*
X168910000Y-119888000D01*
X184594500Y-122872500D02*
X189611000Y-127889000D01*
X171894500Y-122872500D02*
X168910000Y-119888000D01*
X190881000Y-134366000D02*
X190881000Y-129159000D01*
X190881000Y-129159000D02*
X189611000Y-127889000D01*
X189611000Y-127889000D02*
X190881000Y-129159000D01*
X196088000Y-135224000D02*
X191739000Y-135224000D01*
X191739000Y-135224000D02*
X190881000Y-134366000D01*
X99568000Y-135224000D02*
X102520000Y-135224000D01*
X117856000Y-119888000D02*
X160528000Y-119888000D01*
X102520000Y-135224000D02*
X106172000Y-131572000D01*
X106172000Y-131572000D02*
X117856000Y-119888000D01*
X188341000Y-92710000D02*
X188341000Y-90932000D01*
X188341000Y-90932000D02*
X187960000Y-90932000D01*
X182753000Y-92710000D02*
X182753000Y-90932000D01*
X182753000Y-90932000D02*
X182880000Y-90932000D01*
X177165000Y-92710000D02*
X177165000Y-90932000D01*
X177165000Y-90932000D02*
X177292000Y-90932000D01*
X171577000Y-92710000D02*
X171577000Y-90932000D01*
X171577000Y-90932000D02*
X171196000Y-90932000D01*
X165989000Y-92710000D02*
X165989000Y-90932000D01*
X165989000Y-90932000D02*
X166116000Y-90932000D01*
X160401000Y-92710000D02*
X160401000Y-90932000D01*
X160401000Y-90932000D02*
X160020000Y-90932000D01*
X154813000Y-92710000D02*
X154813000Y-90932000D01*
X154813000Y-90932000D02*
X154940000Y-90932000D01*
X193929000Y-92710000D02*
X193929000Y-91313000D01*
X193929000Y-91313000D02*
X193548000Y-90932000D01*
X193548000Y-90932000D02*
X187960000Y-90932000D01*
X187960000Y-90932000D02*
X182880000Y-90932000D01*
X182880000Y-90932000D02*
X177292000Y-90932000D01*
X149225000Y-91567000D02*
X149225000Y-92710000D01*
X149860000Y-90932000D02*
X149225000Y-91567000D01*
X177292000Y-90932000D02*
X171196000Y-90932000D01*
X171196000Y-90932000D02*
X166116000Y-90932000D01*
X166116000Y-90932000D02*
X160020000Y-90932000D01*
X160020000Y-90932000D02*
X154940000Y-90932000D01*
X154940000Y-90932000D02*
X149860000Y-90932000D01*
X196088000Y-133224000D02*
X193549000Y-133224000D01*
X102869000Y-133224000D02*
X99568000Y-133224000D01*
X117221000Y-118872000D02*
X104013000Y-132080000D01*
X104013000Y-132080000D02*
X102869000Y-133224000D01*
X169164000Y-118872000D02*
X163195000Y-118872000D01*
X163195000Y-118872000D02*
X117221000Y-118872000D01*
X172212000Y-121920000D02*
X169164000Y-118872000D01*
X184785000Y-121920000D02*
X172212000Y-121920000D01*
X191897000Y-129032000D02*
X184785000Y-121920000D01*
X191897000Y-131572000D02*
X191897000Y-129032000D01*
X193549000Y-133224000D02*
X191897000Y-131572000D01*
X99568000Y-133224000D02*
X102615000Y-133224000D01*
X188341000Y-97790000D02*
X188341000Y-96012000D01*
X188341000Y-96012000D02*
X188468000Y-96012000D01*
X182753000Y-97790000D02*
X182753000Y-96012000D01*
X182753000Y-96012000D02*
X182880000Y-96012000D01*
X177165000Y-97790000D02*
X177165000Y-96012000D01*
X177165000Y-96012000D02*
X177292000Y-96012000D01*
X171577000Y-97790000D02*
X171577000Y-96012000D01*
X171577000Y-96012000D02*
X171704000Y-96012000D01*
X165989000Y-97790000D02*
X165989000Y-96012000D01*
X165989000Y-96012000D02*
X166116000Y-96012000D01*
X160401000Y-97790000D02*
X160401000Y-96012000D01*
X160401000Y-96012000D02*
X160528000Y-96012000D01*
X154813000Y-97790000D02*
X154813000Y-96012000D01*
X154813000Y-96012000D02*
X154940000Y-96012000D01*
X193929000Y-97790000D02*
X193929000Y-96393000D01*
X193929000Y-96393000D02*
X193548000Y-96012000D01*
X193548000Y-96012000D02*
X188468000Y-96012000D01*
X188468000Y-96012000D02*
X182880000Y-96012000D01*
X182880000Y-96012000D02*
X177292000Y-96012000D01*
X177292000Y-96012000D02*
X171704000Y-96012000D01*
X149225000Y-96647000D02*
X149225000Y-97790000D01*
X149860000Y-96012000D02*
X149225000Y-96647000D01*
X171704000Y-96012000D02*
X166116000Y-96012000D01*
X166116000Y-96012000D02*
X160528000Y-96012000D01*
X160528000Y-96012000D02*
X154940000Y-96012000D01*
X154940000Y-96012000D02*
X149860000Y-96012000D01*
X164465000Y-117856000D02*
X165735000Y-117856000D01*
X103505000Y-131191000D02*
X102235000Y-131191000D01*
X116840000Y-117856000D02*
X164465000Y-117856000D01*
X103505000Y-131191000D02*
X116840000Y-117856000D01*
X165735000Y-117856000D02*
X169545000Y-117856000D01*
X169545000Y-117856000D02*
X172783500Y-121094500D01*
X185229500Y-121094500D02*
X172783500Y-121094500D01*
X193835000Y-131224000D02*
X192791813Y-130180813D01*
X192791813Y-130180813D02*
X192791813Y-128656813D01*
X196088000Y-131224000D02*
X193835000Y-131224000D01*
X192791813Y-128656813D02*
X185229500Y-121094500D01*
X102235000Y-131191000D02*
X102235000Y-131224000D01*
X102235000Y-131224000D02*
X102235000Y-131191000D01*
X102235000Y-131191000D02*
X102235000Y-131224000D01*
X102235000Y-131224000D02*
X99568000Y-131224000D01*
X195740000Y-131224000D02*
X196088000Y-131224000D01*
X188341000Y-102870000D02*
X188341000Y-101092000D01*
X188341000Y-101092000D02*
X187960000Y-101092000D01*
X182753000Y-102870000D02*
X182753000Y-101092000D01*
X182753000Y-101092000D02*
X182880000Y-101092000D01*
X177165000Y-102870000D02*
X177165000Y-101092000D01*
X177165000Y-101092000D02*
X177292000Y-101092000D01*
X171577000Y-102870000D02*
X171577000Y-101092000D01*
X171577000Y-101092000D02*
X171704000Y-101092000D01*
X165989000Y-102870000D02*
X165989000Y-101092000D01*
X165989000Y-101092000D02*
X165608000Y-101092000D01*
X160401000Y-102870000D02*
X160401000Y-101092000D01*
X160401000Y-101092000D02*
X160528000Y-101092000D01*
X154813000Y-102870000D02*
X154813000Y-101092000D01*
X154813000Y-101092000D02*
X154940000Y-101092000D01*
X193929000Y-102870000D02*
X193929000Y-101473000D01*
X193548000Y-101092000D02*
X187960000Y-101092000D01*
X187960000Y-101092000D02*
X182880000Y-101092000D01*
X182880000Y-101092000D02*
X177292000Y-101092000D01*
X177292000Y-101092000D02*
X171704000Y-101092000D01*
X171704000Y-101092000D02*
X165608000Y-101092000D01*
X193929000Y-101473000D02*
X193548000Y-101092000D01*
X149225000Y-101727000D02*
X149225000Y-102870000D01*
X149860000Y-101092000D02*
X149225000Y-101727000D01*
X165608000Y-101092000D02*
X160528000Y-101092000D01*
X160528000Y-101092000D02*
X154940000Y-101092000D01*
X154940000Y-101092000D02*
X149860000Y-101092000D01*
X185483500Y-120217126D02*
X173176126Y-120217126D01*
X173176126Y-120217126D02*
X169799000Y-116840000D01*
X194490374Y-129224000D02*
X185483500Y-120217126D01*
X196088000Y-129224000D02*
X194490374Y-129224000D01*
X99568000Y-129224000D02*
X103948000Y-129224000D01*
X116332000Y-116840000D02*
X168148000Y-116840000D01*
X103948000Y-129224000D02*
X116332000Y-116840000D01*
X168148000Y-116840000D02*
X169799000Y-116840000D01*
X154813000Y-107950000D02*
X154813000Y-106172000D01*
X154813000Y-106172000D02*
X154432000Y-106172000D01*
X160401000Y-107950000D02*
X160401000Y-106172000D01*
X160401000Y-106172000D02*
X160020000Y-106172000D01*
X165989000Y-107950000D02*
X165989000Y-106172000D01*
X165989000Y-106172000D02*
X165608000Y-106172000D01*
X171577000Y-107950000D02*
X171577000Y-106172000D01*
X171577000Y-106172000D02*
X171196000Y-106172000D01*
X177165000Y-107950000D02*
X177165000Y-106172000D01*
X177165000Y-106172000D02*
X177292000Y-106172000D01*
X182753000Y-107950000D02*
X182753000Y-106172000D01*
X182753000Y-106172000D02*
X182880000Y-106172000D01*
X188341000Y-107950000D02*
X188341000Y-106172000D01*
X188341000Y-106172000D02*
X188468000Y-106172000D01*
X149225000Y-107950000D02*
X149225000Y-106807000D01*
X149225000Y-106807000D02*
X149860000Y-106172000D01*
X149860000Y-106172000D02*
X154432000Y-106172000D01*
X154432000Y-106172000D02*
X160020000Y-106172000D01*
X193929000Y-106553000D02*
X193929000Y-107950000D01*
X193548000Y-106172000D02*
X193929000Y-106553000D01*
X160020000Y-106172000D02*
X165608000Y-106172000D01*
X165608000Y-106172000D02*
X171196000Y-106172000D01*
X171196000Y-106172000D02*
X177292000Y-106172000D01*
X177292000Y-106172000D02*
X182880000Y-106172000D01*
X182880000Y-106172000D02*
X188468000Y-106172000D01*
X188468000Y-106172000D02*
X193548000Y-106172000D01*
D24*
X153670000Y-172212000D02*
X168402000Y-172212000D01*
X171196000Y-169418000D02*
X171196000Y-165758000D01*
X168402000Y-172212000D02*
X171196000Y-169418000D01*
X151384000Y-169926000D02*
X153670000Y-172212000D01*
X125476000Y-169926000D02*
X151384000Y-169926000D01*
X124714000Y-170688000D02*
X125476000Y-169926000D01*
X124714000Y-171958000D02*
X124714000Y-170688000D01*
X119634000Y-171958000D02*
X119634000Y-169672000D01*
X119634000Y-169672000D02*
X121158000Y-168148000D01*
X163322000Y-168148000D02*
X156822000Y-168148000D01*
X121158000Y-168148000D02*
X156822000Y-168148000D01*
D23*
X156822000Y-168148000D02*
X156822000Y-168298000D01*
X120396000Y-147574000D02*
X112268000Y-147574000D01*
X121920000Y-146050000D02*
X120396000Y-147574000D01*
X121920000Y-145796000D02*
X121920000Y-146050000D01*
X112268000Y-147574000D02*
X110490000Y-149352000D01*
X110490000Y-171450000D02*
X110490000Y-149352000D01*
X128524000Y-173736000D02*
X112776000Y-173736000D01*
X129794000Y-172466000D02*
X128524000Y-173736000D01*
X112776000Y-173736000D02*
X110490000Y-171450000D01*
X129794000Y-171958000D02*
X129794000Y-172466000D01*
X122428000Y-140081000D02*
X134228770Y-140081000D01*
X136514770Y-142367000D02*
X138176000Y-142367000D01*
X134228770Y-140081000D02*
X136514770Y-142367000D01*
X138811000Y-142367000D02*
X138176000Y-142367000D01*
X138176000Y-142367000D02*
X138811000Y-142367000D01*
X149733000Y-142367000D02*
X138811000Y-142367000D01*
X181102000Y-146558000D02*
X181102000Y-154940000D01*
X182499000Y-145161000D02*
X181102000Y-146558000D01*
X180213000Y-155829000D02*
X168148000Y-155829000D01*
X181102000Y-154940000D02*
X180213000Y-155829000D01*
X165989000Y-153670000D02*
X165989000Y-144526000D01*
X168148000Y-155829000D02*
X165989000Y-153670000D01*
X151892000Y-140208000D02*
X161671000Y-140208000D01*
X161671000Y-140208000D02*
X165989000Y-144526000D01*
X149733000Y-142367000D02*
X151892000Y-140208000D01*
X183007000Y-145161000D02*
X182499000Y-145161000D01*
X121920000Y-138176000D02*
X121920000Y-139573000D01*
X121920000Y-139573000D02*
X122428000Y-140081000D01*
M02*
