M48
;DRILL file {KiCad 4.0.7} date 01/17/18 08:55:28
;FORMAT={-:-/ absolute / metric / decimal}
FMAT,2
METRIC,TZ
T1C0.400
T2C0.700
T3C0.800
T4C0.900
T5C1.016
T6C1.100
T7C1.200
T8C3.200
%
G90
G05
M71
T1
X103.124Y-109.728
X108.712Y-110.744
X109.156Y-125.412
X111.887Y-123.952
X114.3Y-111.76
X119.888Y-112.776
X125.476Y-113.792
X131.064Y-114.808
X136.652Y-115.824
X143.256Y-130.175
X147.828Y-122.936
X151.892Y-121.92
X156.464Y-120.904
X160.528Y-119.888
X162.052Y-129.032
X163.322Y-118.872
X165.735Y-138.43
X165.862Y-117.856
X168.148Y-116.84
X169.291Y-141.986
X176.022Y-157.734
X178.562Y-150.622
X179.451Y-154.813
X188.468Y-146.812
X189.421Y-148.78
T2
X146.812Y-140.716
X146.812Y-148.336
T3
X99.568Y-112.968
X99.568Y-114.968
X99.568Y-116.968
X99.568Y-118.968
X99.568Y-120.968
X99.568Y-122.968
X99.568Y-124.968
X99.568Y-129.224
X99.568Y-131.224
X99.568Y-133.224
X99.568Y-135.224
X99.568Y-137.224
X99.568Y-139.224
X99.568Y-141.224
X99.568Y-144.78
X99.568Y-146.78
X99.568Y-148.78
X99.568Y-150.78
X99.568Y-152.78
X99.568Y-154.78
X116.84Y-138.176
X116.84Y-145.796
X119.38Y-138.176
X119.38Y-145.796
X121.92Y-138.176
X121.92Y-145.796
X124.46Y-138.176
X124.46Y-145.796
X127.Y-138.176
X127.Y-145.796
X129.54Y-138.176
X129.54Y-145.796
X132.08Y-138.176
X132.08Y-145.796
X134.62Y-126.492
X134.62Y-134.112
X134.62Y-138.176
X134.62Y-145.796
X137.16Y-126.492
X137.16Y-134.112
X137.16Y-138.176
X137.16Y-145.796
X139.7Y-126.492
X139.7Y-134.112
X139.7Y-138.176
X139.7Y-145.796
X142.24Y-126.492
X142.24Y-134.112
X144.78Y-126.492
X144.78Y-134.112
X147.32Y-126.492
X147.32Y-134.112
X149.86Y-126.492
X149.86Y-134.112
X152.4Y-126.492
X152.4Y-134.112
X154.94Y-126.492
X154.94Y-134.112
X157.48Y-126.492
X157.48Y-134.112
X160.02Y-126.492
X160.02Y-134.112
X162.56Y-126.492
X162.56Y-134.112
X165.1Y-126.492
X165.1Y-134.112
X167.64Y-126.492
X167.64Y-134.112
X175.387Y-127.381
X175.387Y-129.921
X175.387Y-132.461
X175.387Y-135.001
X175.387Y-137.541
X175.387Y-140.081
X175.387Y-142.621
X175.387Y-145.161
X175.387Y-147.701
X175.387Y-150.241
X183.007Y-127.381
X183.007Y-129.921
X183.007Y-132.461
X183.007Y-135.001
X183.007Y-137.541
X183.007Y-140.081
X183.007Y-142.621
X183.007Y-145.161
X183.007Y-147.701
X183.007Y-150.241
X196.088Y-112.968
X196.088Y-114.968
X196.088Y-116.968
X196.088Y-118.968
X196.088Y-120.968
X196.088Y-122.968
X196.088Y-124.968
X196.088Y-129.224
X196.088Y-131.224
X196.088Y-133.224
X196.088Y-135.224
X196.088Y-137.224
X196.088Y-139.224
X196.088Y-141.224
X196.088Y-144.78
X196.088Y-146.78
X196.088Y-148.78
X196.088Y-150.78
X196.088Y-152.78
X196.088Y-154.78
T4
X99.06Y-77.47
X99.06Y-82.55
X99.06Y-87.63
X99.06Y-92.71
X99.06Y-97.79
X99.06Y-102.87
X99.06Y-107.95
X101.6Y-77.47
X101.6Y-82.55
X101.6Y-87.63
X101.6Y-92.71
X101.6Y-97.79
X101.6Y-102.87
X101.6Y-107.95
X104.648Y-77.47
X104.648Y-82.55
X104.648Y-87.63
X104.648Y-92.71
X104.648Y-97.79
X104.648Y-102.87
X104.648Y-107.95
X107.188Y-77.47
X107.188Y-82.55
X107.188Y-87.63
X107.188Y-92.71
X107.188Y-97.79
X107.188Y-102.87
X107.188Y-107.95
X110.236Y-77.47
X110.236Y-82.55
X110.236Y-87.63
X110.236Y-92.71
X110.236Y-97.79
X110.236Y-102.87
X110.236Y-107.95
X112.776Y-77.47
X112.776Y-82.55
X112.776Y-87.63
X112.776Y-92.71
X112.776Y-97.79
X112.776Y-102.87
X112.776Y-107.95
X115.824Y-77.47
X115.824Y-82.55
X115.824Y-87.63
X115.824Y-92.71
X115.824Y-97.79
X115.824Y-102.87
X115.824Y-107.95
X118.364Y-77.47
X118.364Y-82.55
X118.364Y-87.63
X118.364Y-92.71
X118.364Y-97.79
X118.364Y-102.87
X118.364Y-107.95
X121.412Y-77.47
X121.412Y-82.55
X121.412Y-87.63
X121.412Y-92.71
X121.412Y-97.79
X121.412Y-102.87
X121.412Y-107.95
X123.952Y-77.47
X123.952Y-82.55
X123.952Y-87.63
X123.952Y-92.71
X123.952Y-97.79
X123.952Y-102.87
X123.952Y-107.95
X126.873Y-77.47
X126.873Y-82.55
X126.873Y-87.63
X126.873Y-92.71
X126.873Y-97.79
X127.Y-102.87
X127.Y-107.95
X129.413Y-77.47
X129.413Y-82.55
X129.413Y-87.63
X129.413Y-92.71
X129.413Y-97.79
X129.54Y-102.87
X129.54Y-107.95
X132.588Y-77.47
X132.588Y-82.55
X132.588Y-87.63
X132.588Y-92.71
X132.588Y-97.79
X132.588Y-102.87
X132.588Y-107.95
X135.128Y-77.47
X135.128Y-82.55
X135.128Y-87.63
X135.128Y-92.71
X135.128Y-97.79
X135.128Y-102.87
X135.128Y-107.95
X138.049Y-77.47
X138.049Y-82.55
X138.049Y-87.63
X138.049Y-92.71
X138.049Y-97.79
X138.049Y-102.87
X138.049Y-107.95
X140.589Y-77.47
X140.589Y-82.55
X140.589Y-87.63
X140.589Y-92.71
X140.589Y-97.79
X140.589Y-102.87
X140.589Y-107.95
X143.637Y-77.47
X143.637Y-82.55
X143.637Y-87.63
X143.637Y-92.71
X143.637Y-97.79
X143.637Y-102.87
X143.637Y-107.95
X146.177Y-77.47
X146.177Y-82.55
X146.177Y-87.63
X146.177Y-92.71
X146.177Y-97.79
X146.177Y-102.87
X146.177Y-107.95
X149.225Y-77.47
X149.352Y-82.55
X149.352Y-87.63
X149.352Y-92.71
X149.352Y-97.79
X149.352Y-102.87
X149.352Y-107.95
X151.765Y-77.47
X151.892Y-82.55
X151.892Y-87.63
X151.892Y-92.71
X151.892Y-97.79
X151.892Y-102.87
X151.892Y-107.95
X154.94Y-77.47
X154.94Y-82.55
X154.94Y-87.63
X154.94Y-92.71
X154.94Y-97.79
X154.94Y-102.87
X154.94Y-107.95
X157.48Y-77.47
X157.48Y-82.55
X157.48Y-87.63
X157.48Y-92.71
X157.48Y-97.79
X157.48Y-102.87
X157.48Y-107.95
X160.528Y-77.47
X160.528Y-82.55
X160.528Y-87.63
X160.528Y-92.71
X160.528Y-97.79
X160.528Y-102.87
X160.528Y-107.95
X163.068Y-77.47
X163.068Y-82.55
X163.068Y-87.63
X163.068Y-92.71
X163.068Y-97.79
X163.068Y-102.87
X163.068Y-107.95
X165.989Y-77.47
X165.989Y-82.55
X165.989Y-87.63
X166.116Y-92.71
X166.116Y-97.79
X166.116Y-102.87
X166.116Y-107.95
X168.529Y-77.47
X168.529Y-82.55
X168.529Y-87.63
X168.656Y-92.71
X168.656Y-97.79
X168.656Y-102.87
X168.656Y-107.95
X171.577Y-77.47
X171.577Y-82.55
X171.577Y-87.63
X171.577Y-92.71
X171.704Y-97.79
X171.704Y-102.87
X171.704Y-107.95
X174.117Y-77.47
X174.117Y-82.55
X174.117Y-87.63
X174.117Y-92.71
X174.244Y-97.79
X174.244Y-102.87
X174.244Y-107.95
X177.165Y-77.47
X177.165Y-82.55
X177.165Y-87.63
X177.165Y-92.71
X177.165Y-97.79
X177.292Y-102.87
X177.292Y-107.95
X179.705Y-77.47
X179.705Y-82.55
X179.705Y-87.63
X179.705Y-92.71
X179.705Y-97.79
X179.832Y-102.87
X179.832Y-107.95
X182.753Y-77.47
X182.753Y-82.55
X182.753Y-87.63
X182.753Y-92.71
X182.753Y-97.79
X182.753Y-102.87
X182.753Y-107.95
X185.293Y-77.47
X185.293Y-82.55
X185.293Y-87.63
X185.293Y-92.71
X185.293Y-97.79
X185.293Y-102.87
X185.293Y-107.95
X188.341Y-77.47
X188.341Y-82.55
X188.341Y-87.63
X188.341Y-92.71
X188.341Y-97.79
X188.341Y-102.87
X188.341Y-107.95
X190.881Y-77.47
X190.881Y-82.55
X190.881Y-87.63
X190.881Y-92.71
X190.881Y-97.79
X190.881Y-102.87
X190.881Y-107.95
X193.929Y-77.47
X193.929Y-82.55
X193.929Y-87.63
X193.929Y-92.71
X193.929Y-97.79
X193.929Y-102.87
X193.929Y-107.95
X196.469Y-77.47
X196.469Y-82.55
X196.469Y-87.63
X196.469Y-92.71
X196.469Y-97.79
X196.469Y-102.87
X196.469Y-107.95
T5
X114.554Y-149.098
X114.554Y-171.958
X117.094Y-149.098
X117.094Y-171.958
X119.634Y-149.098
X119.634Y-171.958
X122.174Y-149.098
X122.174Y-171.958
X124.714Y-149.098
X124.714Y-171.958
X127.254Y-149.098
X127.254Y-171.958
X129.794Y-149.098
X129.794Y-171.958
X132.334Y-149.098
X132.334Y-171.958
T6
X149.098Y-159.108
X149.098Y-165.608
X153.598Y-159.108
X153.598Y-165.608
X156.822Y-163.648
X156.822Y-168.148
X156.972Y-155.956
X156.972Y-160.456
X163.322Y-163.648
X163.322Y-168.148
X163.472Y-155.956
X163.472Y-160.456
X166.696Y-159.258
X166.696Y-165.758
X171.196Y-159.258
X171.196Y-165.758
T7
X152.306Y-144.526
X157.306Y-144.526
X162.306Y-144.526
T8
X101.473Y-170.688
X105.029Y-114.173
X190.5Y-114.173
X194.056Y-170.688
T0
M30
