G04 #@! TF.FileFunction,Legend,Bot*
%FSLAX46Y46*%
G04 Gerber Fmt 4.6, Leading zero omitted, Abs format (unit mm)*
G04 Created by KiCad (PCBNEW 4.0.7) date 01/18/18 14:45:31*
%MOMM*%
%LPD*%
G01*
G04 APERTURE LIST*
%ADD10C,0.100000*%
%ADD11C,0.120000*%
%ADD12C,0.150000*%
G04 APERTURE END LIST*
D10*
D11*
X133290000Y-131302000D02*
G75*
G03X133290000Y-129302000I0J1000000D01*
G01*
X133290000Y-129302000D02*
X133290000Y-127652000D01*
X133290000Y-127652000D02*
X168970000Y-127652000D01*
X168970000Y-127652000D02*
X168970000Y-132952000D01*
X168970000Y-132952000D02*
X133290000Y-132952000D01*
X133290000Y-132952000D02*
X133290000Y-131302000D01*
D10*
X140991228Y-171345472D02*
X140991228Y-165534180D01*
X140991228Y-165534180D02*
X139707795Y-165507849D01*
X139707795Y-165507849D02*
X139714483Y-156676627D01*
X139714483Y-156676627D02*
X140916736Y-156678603D01*
X140916736Y-156678603D02*
X140890658Y-147597807D01*
X140890658Y-147597807D02*
X109720507Y-147611805D01*
X109720507Y-147611805D02*
X109117714Y-147844616D01*
X109117714Y-147844616D02*
X108572833Y-148128099D01*
X108572833Y-148128099D02*
X108086423Y-148462747D01*
X108086423Y-148462747D02*
X107659048Y-148849047D01*
X107659048Y-148849047D02*
X107291259Y-149287488D01*
X107291259Y-149287488D02*
X106983623Y-149778560D01*
X106983623Y-149778560D02*
X106736690Y-150322750D01*
X106736690Y-150322750D02*
X106551024Y-150920547D01*
X106551024Y-150920547D02*
X106522266Y-169958460D01*
X106522266Y-169958460D02*
X106756259Y-170577824D01*
X106756259Y-170577824D02*
X107040742Y-171166018D01*
X107040742Y-171166018D02*
X107390257Y-171709445D01*
X107390257Y-171709445D02*
X107819342Y-172194503D01*
X107819342Y-172194503D02*
X108342540Y-172607595D01*
X108342540Y-172607595D02*
X108974387Y-172935122D01*
X108974387Y-172935122D02*
X109729425Y-173163482D01*
X109729425Y-173163482D02*
X110622193Y-173279078D01*
X110622193Y-173279078D02*
X133177285Y-173304026D01*
X133177285Y-173304026D02*
X134138181Y-171360480D01*
X134138181Y-171360480D02*
X140946524Y-171330686D01*
X134765451Y-157348350D02*
X134765451Y-164487931D01*
X134765451Y-164487931D02*
X140579188Y-164487931D01*
X140579188Y-164487931D02*
X140579188Y-157348350D01*
X140579188Y-157348350D02*
X134765451Y-157348350D01*
X134116349Y-171271600D02*
X134116349Y-169719378D01*
X134116349Y-169719378D02*
X134645515Y-169190211D01*
X134645515Y-169190211D02*
X134645515Y-167937850D01*
X134645515Y-167937850D02*
X139707876Y-167937850D01*
X139707876Y-167937850D02*
X139707876Y-169225489D01*
X139707876Y-169225489D02*
X140201765Y-169754656D01*
X140201765Y-169754656D02*
X140201765Y-171324517D01*
X140201765Y-171324517D02*
X134116349Y-171271600D01*
X136197738Y-171306878D02*
X136197738Y-171959517D01*
X136197738Y-171959517D02*
X138190932Y-171959517D01*
X138190932Y-171959517D02*
X138190932Y-171342156D01*
D12*
X131742381Y-129540095D02*
X132551905Y-129540095D01*
X132647143Y-129587714D01*
X132694762Y-129635333D01*
X132742381Y-129730571D01*
X132742381Y-129921048D01*
X132694762Y-130016286D01*
X132647143Y-130063905D01*
X132551905Y-130111524D01*
X131742381Y-130111524D01*
X131742381Y-130492476D02*
X131742381Y-131111524D01*
X132123333Y-130778190D01*
X132123333Y-130921048D01*
X132170952Y-131016286D01*
X132218571Y-131063905D01*
X132313810Y-131111524D01*
X132551905Y-131111524D01*
X132647143Y-131063905D01*
X132694762Y-131016286D01*
X132742381Y-130921048D01*
X132742381Y-130635333D01*
X132694762Y-130540095D01*
X132647143Y-130492476D01*
X142976381Y-161036095D02*
X143785905Y-161036095D01*
X143881143Y-161083714D01*
X143928762Y-161131333D01*
X143976381Y-161226571D01*
X143976381Y-161417048D01*
X143928762Y-161512286D01*
X143881143Y-161559905D01*
X143785905Y-161607524D01*
X142976381Y-161607524D01*
X143976381Y-162607524D02*
X143976381Y-162036095D01*
X143976381Y-162321809D02*
X142976381Y-162321809D01*
X143119238Y-162226571D01*
X143214476Y-162131333D01*
X143262095Y-162036095D01*
X107831143Y-153670857D02*
X110831143Y-154385143D01*
X108688286Y-154956572D01*
X110831143Y-155528000D01*
X107831143Y-156242286D01*
X110688286Y-158528000D02*
X110831143Y-158242286D01*
X110831143Y-157670857D01*
X110688286Y-157385143D01*
X110402571Y-157242286D01*
X109259714Y-157242286D01*
X108974000Y-157385143D01*
X108831143Y-157670857D01*
X108831143Y-158242286D01*
X108974000Y-158528000D01*
X109259714Y-158670857D01*
X109545429Y-158670857D01*
X109831143Y-157242286D01*
X110831143Y-159956572D02*
X107831143Y-159956572D01*
X109974000Y-160956572D01*
X107831143Y-161956572D01*
X110831143Y-161956572D01*
X110831143Y-163813714D02*
X110688286Y-163528000D01*
X110545429Y-163385143D01*
X110259714Y-163242286D01*
X109402571Y-163242286D01*
X109116857Y-163385143D01*
X108974000Y-163528000D01*
X108831143Y-163813714D01*
X108831143Y-164242286D01*
X108974000Y-164528000D01*
X109116857Y-164670857D01*
X109402571Y-164813714D01*
X110259714Y-164813714D01*
X110545429Y-164670857D01*
X110688286Y-164528000D01*
X110831143Y-164242286D01*
X110831143Y-163813714D01*
X110688286Y-165956572D02*
X110831143Y-166242286D01*
X110831143Y-166813714D01*
X110688286Y-167099429D01*
X110402571Y-167242286D01*
X110259714Y-167242286D01*
X109974000Y-167099429D01*
X109831143Y-166813714D01*
X109831143Y-166385143D01*
X109688286Y-166099429D01*
X109402571Y-165956572D01*
X109259714Y-165956572D01*
X108974000Y-166099429D01*
X108831143Y-166385143D01*
X108831143Y-166813714D01*
X108974000Y-167099429D01*
M02*
